PathFileType	4	(X/Y/Z)	16_2_21_p1_0-341_filt_butterworth.trc
DataRate	CameraRate	NumFrames	NumMarkers	Units	OrigDataRate	OrigDataStartFrame	OrigNumFrames
60.0	60.0	6	27	m	60.0	255	341
Frame#	Time	RHip			RKnee			RAnkle			RBigToe			RSmallToe			RHeel			LHip			LKnee			LAnkle			LBigToe			LSmallToe			LHeel			Neck			Head			Nose			RShoulder			RElbow			RWrist			RThumb			RIndex			RPinky			LShoulder			LElbow			LWrist			LThumb			LIndex			LPinky			
		X1	Y1	Z1	X2	Y2	Z2	X3	Y3	Z3	X4	Y4	Z4	X5	Y5	Z5	X6	Y6	Z6	X7	Y7	Z7	X8	Y8	Z8	X9	Y9	Z9	X10	Y10	Z10	X11	Y11	Z11	X12	Y12	Z12	X13	Y13	Z13	X14	Y14	Z14	X15	Y15	Z15	X16	Y16	Z16	X17	Y17	Z17	X18	Y18	Z18	X19	Y19	Z19	X20	Y20	Z20	X21	Y21	Z21	X22	Y22	Z22	X23	Y23	Z23	X24	Y24	Z24	X25	Y25	Z25	X26	Y26	Z26	X27	Y27	Z27	
255	4.25	0.2816987322299368	0.5834102994557723	0.5209724536725364	0.286527728045419	0.6402502084851825	0.94749234671466	0.24839555921182388	0.7211822943378013	1.3737739274942928	0.24480083792501242	0.443183720940013	1.36746039056397	0.3119478059839649	0.4799971850505111	1.3764704187379522	0.2219766427764626	0.7647415772744162	1.4214404910584084	0.0727643692823714	0.528096933306079	0.49197132863671506	0.06418825172016324	0.6188404477642168	0.9351292961200619	0.08048899358564994	0.6790909588014007	1.3546296967435463	0.06129643321875301	0.4203365094915613	1.3460025570953207	0.006356601141480154	0.5038835934829522	1.3779141362191678	0.10145097269151851	0.7653574579718474	1.4359183521123076	0.24962534036094977	0.3651994708185359	-0.08817297961666921	0.3008275938316025	0.2518928544986739	-0.31743897642081376	0.26458201118107927	0.21628580273428918	-0.1738380684795478	0.4036566378683064	0.4300188867466995	-0.01568874557510292	0.406443843055912	0.4300536273731406	0.26421805348085564	0.32100362743319183	0.16723201910073227	0.3107966065863292	0.2794582036488761	0.013531009660875006	0.2795847963078101	0.2591046645470744	-0.020962996097386007	0.30794296488000156	0.26027210268208556	0.022378244902075708	0.3460857858101553	0.07750010380027593	0.39481911893856303	-0.05159695485461796	0.049986034544210786	0.3439062506941965	0.22123743863762893	0.20120245226920963	0.11465994935318315	0.29772573990371826	0.25501609882244886	0.04395780666626114	0.2830825422490147	0.2661708630810778	0.032226114560601975	0.31349656248784186	0.26809889948271726	0.07130235946350406	0.36199190757772093
256	4.266666666666667	0.28328039664550325	0.5841094160370974	0.5246435870521702	0.2866956799303836	0.6402997229449143	0.9486362922207561	0.24690352145022515	0.7197133805167428	1.3735823329153638	0.24538384022721832	0.4445856794572858	1.367672168447726	0.3123626348101986	0.48049431074223425	1.3764031551912799	0.22189052332497114	0.7632102942691759	1.4204358578361618	0.07242888731663404	0.5304533606828371	0.5011107627192257	0.06665646534130998	0.6199728084251578	0.9354121474240282	0.07823845157583038	0.675724803276097	1.3571340303548325	0.0617765610210128	0.4236440185651881	1.3477210653350886	0.006432034007013487	0.5077544515027357	1.3800499526945686	0.10061688782394054	0.7654731803676935	1.4368595906149613	0.250669649537863	0.3643536391040071	-0.08134399858084335	0.30627996914103706	0.24862770645721025	-0.31397732448849797	0.2677928842646728	0.21421555035319917	-0.16760657341363214	0.4039062237647083	0.43123261101097937	-0.006971013564824842	0.4045846557197478	0.43497118296646514	0.2724934801450234	0.3096381785583232	0.1853190938278331	0.3356624950347992	0.26500769482621656	0.022603440087471324	0.31340585578490704	0.24182951644642725	-0.009671982755104398	0.338161506933464	0.2485738770810156	0.04151006321776175	0.377233857865101	0.07792490773845474	0.39535986991664274	-0.04508070459844807	0.04580210919029363	0.3479862585308988	0.23300013054980245	0.20280372749734374	0.13477083276423663	0.32468614109014216	0.24990853894944975	0.03819447580776763	0.3128925769662626	0.26069746140882283	0.04010013636894449	0.34694920056865247	0.2618519083073855	0.09228549958521151	0.39345256270257933
257	4.283333333333333	0.283932567950308	0.5851046856275911	0.5293523669886369	0.2869894245371562	0.6406677411924038	0.9503137240838017	0.24488891503301494	0.7179088402983737	1.3726625677603634	0.24669504497960604	0.44804566838518955	1.3690165475738971	0.3129858285690654	0.47852718509395553	1.3751766889611645	0.22168951266454792	0.7623593880092223	1.4211507709301046	0.07177517653242646	0.5361926839988981	0.5111665826899258	0.06895586502228293	0.6213133694717341	0.935838433718123	0.07597790453247676	0.6713105064166953	1.3590500119493174	0.06267416690026761	0.42822411343813427	1.3506591377073538	0.0065760451341522735	0.512890460174068	1.3833084561434033	0.0997728691303258	0.7614752340636664	1.4365395164933328	0.2509861284682508	0.3627100020856618	-0.07430817623399386	0.3110884322389454	0.24322344842159146	-0.3098820770433428	0.26952035617143477	0.21114893667729967	-0.1604854526883619	0.4043040540250756	0.43067088090123806	0.001041370774565272	0.40283507896450993	0.4389377064302035	0.280222068105909	0.30092628798578624	0.198364607770334	0.3610284665205692	0.2538853604745298	0.026458071119485508	0.34801191506754886	0.23262835933103473	-0.0027676768660824204	0.36827598093617875	0.24269075243840452	0.05300627979886924	0.40573543518825594	0.07777511718918402	0.3956457382234321	-0.03868819098322559	0.04357150934270002	0.3498222750426719	0.24258841616453508	0.20477928454591324	0.158459056568944	0.3494022812506036	0.24781785297323236	0.03271864333886594	0.34437544320117336	0.25847624698285715	0.040896341788014476	0.3788605118085752	0.25721628883558356	0.11008897555530486	0.42062883248306804
258	4.3	0.28381650143996107	0.5861605589144931	0.5328340462878699	0.28724080860630846	0.6412946262467418	0.9517680863092983	0.24332740966918526	0.7166482997724649	1.3715215498570295	0.2481952034930449	0.4525541976232619	1.3714867795483827	0.31333191640918184	0.4769145553655248	1.3742669812941217	0.22143005893425893	0.7621784212904107	1.4223606411928644	0.07147233753521343	0.5449942321202511	0.5181819609504541	0.07050982031305542	0.6227140170641767	0.936334268734876	0.07529365447100038	0.6681857970258926	1.359479769326807	0.06336923185400785	0.4320909639060453	1.3542010028366234	0.006685587778894833	0.5173576692411961	1.386798946813917	0.09878167343942537	0.7558768037788296	1.4358335362310988	0.25082257936439306	0.35971880868805006	-0.0667323339554658	0.31503958925555586	0.2348679436585255	-0.30498825904002547	0.2698871395152686	0.2069290869904601	-0.15208391275518654	0.4050515515954091	0.42755311162900944	0.008384590708312281	0.40092012561087614	0.44062527598652584	0.28821134640361645	0.2950993953405682	0.20693605885622268	0.386533924942279	0.24809658544123633	0.025717146124428276	0.38234729138563	0.23038870732932476	-0.0009255951833682999	0.3975890079158598	0.24069865784369016	0.06344128823297186	0.43439313720908956	0.07774098468538605	0.3953913966331482	-0.03281236640359766	0.04307763710825602	0.35276872121339936	0.24980144578678917	0.20482399664494577	0.17957904893579021	0.37216002916641144	0.24771930000679673	0.03160539122725607	0.3764805910912043	0.25657891788796	0.037436268644275475	0.4091230860480704	0.2525068125704505	0.12138305417096354	0.4449030541087002
259	4.316666666666666	0.2833250108658577	0.5862777618453028	0.5330587436876225	0.28735752397086034	0.6418871434082316	0.9526629993858959	0.24272384123899818	0.7164500419881625	1.3708669578481443	0.2491457912944229	0.45601084595886454	1.3743068542731067	0.31334498645900355	0.47646659392776347	1.374049578475746	0.22123975168346563	0.7623259410754962	1.4233939368385249	0.07110911097345472	0.554112383709387	0.5184418383031196	0.07104163374559752	0.6238544356507782	0.9364830511447811	0.07637732975840669	0.6671728346515337	1.3585060942554963	0.06281859288105487	0.4341233437177843	1.3572199445538748	0.0062827063300803145	0.5209624343252345	1.389659976304015	0.09801496002422257	0.751669902314892	1.4352035645751244	0.2509041760144296	0.35599114701991247	-0.058793033848616054	0.31843638504792426	0.22468444809695032	-0.29905546240025355	0.27025631953911167	0.20175293733782632	-0.14334662437005002	0.4060707938611263	0.4229994022215943	0.015224647192104472	0.39819777547757446	0.43980633918423667	0.2970491048139003	0.2915294505173518	0.2137959005945618	0.41271997064201593	0.24641811200552702	0.02579285058941382	0.4169065219055231	0.23122975017566388	0.0013308123644753444	0.42831024575717397	0.239913454780449	0.07936684185515469	0.46662830296670094	0.07830487006630474	0.3940946959419443	-0.02772933855931884	0.04458455774740174	0.3567019293214604	0.25583320130190984	0.20254004492521147	0.19311717762304614	0.3949190983891874	0.2477125179957011	0.036418467663489315	0.40914608287136156	0.25342865168992484	0.03413984226411347	0.4396939204643707	0.2469074280187142	0.12677654583407771	0.47015913985793467
260	4.333333333333333	0.28284502173337756	0.5841800646782535	0.5293809323007668	0.28735230233635844	0.6424116275609508	0.9532483816287881	0.24282493633590702	0.7172781682594409	1.370916628682851	0.2493582565925804	0.45747234752512034	1.3766555078820302	0.31332854654715053	0.476719999471902	1.374224505967025	0.22116468470254805	0.7625651983555243	1.4242978088764215	0.07020931763175006	0.5602862032553189	0.5108129919072716	0.07066756800318053	0.6244245195203874	0.935739063988215	0.07791438365740709	0.6672283869990822	1.3569345256709893	0.060776631939145634	0.43476894946349764	1.358577293650864	0.004936638653034435	0.5249421495318329	1.3914672771112238	0.09769414161292551	0.7500072536832477	1.434431590736585	0.2518119583548309	0.3517999964929679	-0.051545940385677995	0.32171639473812513	0.21333715371138606	-0.29189894048547715	0.2714237655393673	0.19596877813123043	-0.13583223002555794	0.4070100773459665	0.4193391071489415	0.021191616656459973	0.39469115873562954	0.43623765515985785	0.30560760288274297	0.2899007505607326	0.2198077068928222	0.4394998278939477	0.2447536040192336	0.031296214140654914	0.45349543344512966	0.23177631869899262	0.011594046329698045	0.4641577028904311	0.23890646554401468	0.1014776717083492	0.5035025362329657	0.07957866347596912	0.39130258972181753	-0.023452225065872873	0.04813466579081194	0.3596106890952693	0.261689859839404	0.19925286561230598	0.2004681143860403	0.4189805195673442	0.24571617013542488	0.046942343184132235	0.4438916224786783	0.24809708925914495	0.03690577100867784	0.47271797614384015	0.2409006991223299	0.13131171148763027	0.500080924149968
